# xmcd CD database file
#
# Track frame offsets:
#	150
#	13506
#	26161
#	39872
#	53362
#	69261
#	82590
#	98431
#	110767
#	124466
#	137905
#	153328
#	166169
#	209135
#	213789
#	235595
#	253405
#	273432
#	284708
#	299700
#	314040
#
# Disc length: 4570 seconds
#
# Revision: 0
# Processed by: cddbd v1.5.2PL0 Copyright (c) Steve Scherf et al.
# Submitted via: CDex 1.51
#
DISCID=3411d815
DTITLE=Les rois du jazz - CD3
DYEAR=1995
DGENRE=Jazz
TTITLE0=Take the -A- train
TTITLE1=Mood indigo
TTITLE2=Sentimental lady
TTITLE3=Clementine
TTITLE4=John hardy's wife
TTITLE5=Jump for joy
TTITLE6=Solitude
TTITLE7=Sophisticated lady
TTITLE8=In a sentimental mood
TTITLE9=Rockin' in rhythm
TTITLE10=Flamingo
TTITLE11=Caravan
TTITLE12=Sing sing sing
TTITLE13=Good bye
TTITLE14=Don't be that way
TTITLE15=Oh lady be good
TTITLE16=Stomping at the savoy
TTITLE17=Both sides now
TTITLE18=Windy
TTITLE19=Watch what happens
TTITLE20=Bluesette
EXTD=YEAR: 1995
EXTT0=
EXTT1=
EXTT2=
EXTT3=
EXTT4=
EXTT5=
EXTT6=
EXTT7=
EXTT8=
EXTT9=
EXTT10=
EXTT11=
EXTT12=
EXTT13=
EXTT14=
EXTT15=
EXTT16=
EXTT17=
EXTT18=
EXTT19=
EXTT20=
PLAYORDER=
